<svg width="24" height="24" viewBox="0 0 24 24" fill="none" xmlns="http://www.w3.org/2000/svg">
<path d="M11 9.125H13V7.20833H11M12 19.6667C7.59 19.6667 4 16.2262 4 12C4 7.77375 7.59 4.33333 12 4.33333C16.41 4.33333 20 7.77375 20 12C20 16.2262 16.41 19.6667 12 19.6667ZM12 2.41666C10.6868 2.41666 9.38642 2.66454 8.17317 3.14615C6.95991 3.62776 5.85752 4.33366 4.92893 5.22356C3.05357 7.02078 2 9.45834 2 12C2 14.5417 3.05357 16.9792 4.92893 18.7764C5.85752 19.6663 6.95991 20.3722 8.17317 20.8538C9.38642 21.3355 10.6868 21.5833 12 21.5833C14.6522 21.5833 17.1957 20.5737 19.0711 18.7764C20.9464 16.9792 22 14.5417 22 12C22 10.7415 21.7413 9.49532 21.2388 8.33261C20.7362 7.16991 19.9997 6.11345 19.0711 5.22356C18.1425 4.33366 17.0401 3.62776 15.8268 3.14615C14.6136 2.66454 13.3132 2.41666 12 2.41666ZM11 16.7917H13V11.0417H11V16.7917Z" fill="#F8F8F8"/>
</svg>
